<?xml version="1.0" standalone="no"?>
<!DOCTYPE svg PUBLIC "-//W3C//DTD SVG 20010904//EN"
 "http://www.w3.org/TR/2001/REC-SVG-20010904/DTD/svg10.dtd">
<svg version="1.0" xmlns="http://www.w3.org/2000/svg"
 width="1000.000000pt" height="1000.000000pt" viewBox="0 0 1000.000000 1000.000000"
 preserveAspectRatio="xMidYMid meet">
<metadata>
Created by potrace 1.11, written by Peter Selinger 2001-2013
</metadata>
<g transform="translate(0.000000,1000.000000) scale(0.100000,-0.100000)"
fill="#000000" stroke="none">
<path d="M1315 9993 c-154 -19 -345 -78 -485 -148 -412 -207 -699 -579 -802
-1036 l-23 -104 0 -3705 0 -3705 23 -104 c67 -298 198 -538 412 -751 213 -214
453 -345 751 -412 l104 -23 3705 0 3705 0 104 23 c298 67 538 198 751 412 214
213 345 453 412 751 l23 104 0 3705 0 3705 -23 104 c-46 205 -131 398 -249
564 -77 109 -246 277 -358 355 -156 111 -349 195 -558 245 l-92 22 -3685 1
c-2027 1 -3698 -1 -3715 -3z m5670 -1463 c493 -16 863 -46 1195 -96 325 -49
465 -100 576 -209 85 -84 116 -153 122 -270 12 -259 -92 -424 -308 -489 -97
-30 -240 -30 -610 -2 -684 51 -1070 71 -1650 82 l-345 7 -88 -449 c-397 -2043
-663 -3700 -771 -4809 -42 -431 -45 -452 -66 -505 -59 -149 -196 -260 -387
-312 -105 -28 -326 -31 -423 -4 -206 56 -332 190 -361 383 -26 174 70 937 250
1988 22 127 65 401 96 610 121 825 259 1574 534 2898 l39 187 -72 0 c-104 0
-386 -18 -576 -36 -660 -62 -1071 -185 -1284 -385 -155 -145 -226 -338 -213
-574 9 -144 37 -239 120 -405 69 -138 72 -147 72 -215 0 -59 -5 -79 -30 -124
-93 -169 -368 -313 -568 -298 -93 8 -161 41 -239 118 -161 157 -282 419 -323
695 -19 126 -21 400 -5 519 75 540 363 918 909 1194 541 274 1269 424 2391
492 407 25 1378 29 2015 9z"/>
</g>
</svg>
